<svg xmlns="http://www.w3.org/2000/svg" width="24.302" height="28.878" viewBox="0 0 24.302 28.878"><defs><style>.a{fill:#2680eb;}</style></defs><path class="a" d="M-503.507-35.527l-4.572,4.571,4.741,4.741,0,0,1.6,1.6,0,0L-497-19.874a24.971,24.971,0,0,0,4.2-4.94Z" transform="translate(515.46 43.175)"/><path class="a" d="M-496.461-42.523l10.078,10.078a12.088,12.088,0,0,0,.674-3.977,12.146,12.146,0,0,0-6.237-10.615Z" transform="translate(510.012 48.573)"/><path class="a" d="M-521.442-33.791a12.138,12.138,0,0,0-.537,3.581,12.1,12.1,0,0,0,.574,3.682l3.613-3.614Z" transform="translate(521.979 42.361)"/><path class="a" d="M-503.274-11.974-507.943-7.3c2.454,2.251,4.7,4.054,4.7,4.054s2.226-1.788,4.668-4.026Z" transform="translate(515.396 32.129)"/><path class="a" d="M-514.866-23.91l-4.279,4.279a22.656,22.656,0,0,0,4.3,5.176l4.716-4.715Z" transform="translate(520.65 37.727)"/><path class="a" d="M-514.882-37.823l4.571-4.572-4.369-4.369a12.2,12.2,0,0,0-4.5,4.643Z" transform="translate(520.666 48.445)"/><path class="a" d="M-502.81-45.477l3.883-3.883a12.138,12.138,0,0,0-3.685-.57,12.133,12.133,0,0,0-3.98.67Z" transform="translate(514.763 49.93)"/></svg>