<svg xmlns="http://www.w3.org/2000/svg" width="28.692" height="26.431" viewBox="0 0 28.692 26.431"><defs><style>.a{fill:#146693;}</style></defs><g transform="translate(0 -21.707)"><path class="a" d="M24.221,44.187c.768,3.524-3.059,4.289-4.745,3.83a29.536,29.536,0,0,0-5.124-.535,29.622,29.622,0,0,0-5.133.535c-1.686.462-5.516-.306-4.751-3.83s4.136-3.371,5.06-8.122,4.827-4.445,4.827-4.445,3.9-.306,4.818,4.445S23.456,40.663,24.221,44.187ZM17.889,31.311c2.074.6,4.365-1.039,5.121-3.658s-.312-5.223-2.387-5.822S16.258,22.87,15.5,25.489,15.815,30.712,17.889,31.311Zm8.6-.953c-2-.816-4.451.567-5.481,3.091s-.245,5.229,1.753,6.041,4.451-.567,5.481-3.091S28.484,31.174,26.486,30.358ZM10.8,31.311c2.074-.6,3.142-3.206,2.387-5.822s-3.049-4.254-5.121-3.655S4.924,25.04,5.679,27.656,8.725,31.91,10.8,31.311ZM5.934,39.49c2-.816,2.782-3.521,1.753-6.041S4.2,29.542,2.206,30.358-.576,33.879.453,36.4,3.936,40.306,5.934,39.49Z" transform="translate(0 0)"/></g></svg>