<svg xmlns="http://www.w3.org/2000/svg" width="27.989" height="24.691" viewBox="0 0 27.989 24.691"><defs><style>.a{fill:#6a3368;}</style></defs><g transform="translate(0.001 -28.053)"><path class="a" d="M4.627,153.208h3.8a19.463,19.463,0,0,0-4.206-5.378,2.328,2.328,0,0,0-1.562-.617,2.735,2.735,0,0,0-1.742.689A2.5,2.5,0,0,0,.771,151.6a12.6,12.6,0,0,1,1.589,2.732A2.853,2.853,0,0,1,4.627,153.208Z" transform="translate(0 -112.156)"/><path class="a" d="M340.238,147.9a2.735,2.735,0,0,0-1.742-.689,2.328,2.328,0,0,0-1.562.617,19.461,19.461,0,0,0-4.206,5.378h3.8a2.853,2.853,0,0,1,2.266,1.12,12.6,12.6,0,0,1,1.59-2.732A2.5,2.5,0,0,0,340.238,147.9Z" transform="translate(-313.172 -112.156)"/><path class="a" d="M72.226,274.673v-3.781a1.683,1.683,0,0,0-1.681-1.681H51.812a1.683,1.683,0,0,0-1.681,1.681v3.781a1.683,1.683,0,0,0,1.681,1.681H70.545A1.683,1.683,0,0,0,72.226,274.673Z" transform="translate(-47.185 -226.982)"/><path class="a" d="M361.5,410.751l.277,2.2H363.2l.277-2.2Z" transform="translate(-340.255 -360.203)"/><path class="a" d="M81.156,410.751l.277,2.2h1.415l.277-2.2Z" transform="translate(-76.387 -360.203)"/><path class="a" d="M79.449,41.052a20.019,20.019,0,0,1,4.72-6.241,3.5,3.5,0,0,1,1.2-.728c-1.582-3.525-5.544-6.03-10.171-6.03s-8.59,2.505-10.172,6.03a3.5,3.5,0,0,1,1.2.729,20.017,20.017,0,0,1,4.72,6.241Z" transform="translate(-61.205 0)"/></g></svg>