<svg xmlns="http://www.w3.org/2000/svg" width="31.643" height="29" viewBox="0 0 31.643 29"><defs><style>.a{fill:#33986d;}</style></defs><g transform="translate(0 -0.605)"><g transform="translate(0 0.605)"><path class="a" d="M21.447,10.945A10.213,10.213,0,0,0,11.362.605a9.457,9.457,0,0,0-2.8.412l2.8,9.93,10.085,0Z" transform="translate(10.122 -0.605)"/><path class="a" d="M9.251,9.334A5.714,5.714,0,0,0,8.023,6.1,7.452,7.452,0,0,0,3.5,3.611a1.232,1.232,0,0,0-.941-.436H1.248a1.249,1.249,0,0,0,0,2.5H2.56a1.234,1.234,0,0,0,.8-.295A5.646,5.646,0,0,1,6.628,7.173a3.97,3.97,0,0,1,.864,2.163h-.05c0,5.467,5.417,9.9,12.1,9.9s12.1-4.432,12.1-9.9C31.643,9.336,9.251,9.336,9.251,9.334Z" transform="translate(0 2.434)"/><path class="a" d="M8.637,10.735a3.446,3.446,0,1,0,3.446,3.446A3.449,3.449,0,0,0,8.637,10.735Zm0,5.133a1.686,1.686,0,1,1,1.687-1.685A1.689,1.689,0,0,1,8.637,15.868Z" transform="translate(6.138 11.373)"/><path class="a" d="M12.9,10.735a3.446,3.446,0,1,0,3.446,3.446A3.451,3.451,0,0,0,12.9,10.735Zm0,5.133a1.686,1.686,0,1,1,1.685-1.685A1.688,1.688,0,0,1,12.9,15.868Z" transform="translate(11.173 11.373)"/></g></g></svg>