<svg xmlns="http://www.w3.org/2000/svg" width="39.541" height="31.014" viewBox="0 0 39.541 31.014"><defs><style>.a{fill:#fff;}</style></defs><path class="a" d="M1.256,69.21A1.256,1.256,0,0,0,0,70.466v9.8a1.256,1.256,0,1,0,2.512,0v-9.8A1.256,1.256,0,0,0,1.256,69.21Z" transform="translate(0 -61.883)"/><path class="a" d="M46.122,25.459H40.9a1.256,1.256,0,0,0-1.256,1.256V27.85L22.82,32.837a1.256,1.256,0,0,0-.9,1.2v9.8a1.254,1.254,0,0,0,.015.19c0,.012,0,.023.005.035a1.26,1.26,0,0,0,.037.155l3.561,11.371a1.254,1.254,0,0,0,1.573.823L32.3,54.794a1.256,1.256,0,0,0,.824-1.574l-1.764-5.639,8.283,2.457v1.134A1.256,1.256,0,0,0,40.9,52.429h5.226a1.256,1.256,0,0,0,1.256-1.256V26.715A1.256,1.256,0,0,0,46.122,25.459ZM30.349,52.771l-2.788.872L25.08,45.72l3.375,1Zm-.53-8.266-.011,0-5.374-1.594V34.979L39.64,30.47V47.418Zm15.047,5.412H42.152V27.971h2.714Z" transform="translate(-18.25 -25.459)"/><path class="a" d="M188.906,133.8l-5.435-2.718a1.256,1.256,0,1,0-1.124,2.247l5.435,2.718a1.256,1.256,0,0,0,1.124-2.247Z" transform="translate(-151.232 -113.281)"/><path class="a" d="M182.911,55.011a1.249,1.249,0,0,0,.561-.133l5.435-2.718a1.256,1.256,0,0,0-1.123-2.247l-5.435,2.718a1.256,1.256,0,0,0,.563,2.38Z" transform="translate(-151.232 -45.708)"/><path class="a" d="M199.8,98.48h-4.538a1.256,1.256,0,1,0,0,2.512H199.8a1.256,1.256,0,0,0,0-2.512Z" transform="translate(-161.519 -86.251)"/></svg>