<svg xmlns="http://www.w3.org/2000/svg" width="27.038" height="24.034" viewBox="0 0 27.038 24.034"><defs><style>.a{opacity:0.9;}.b{fill:#187c3c;}</style></defs><g class="a"><path class="b" d="M23.884,27a2.259,2.259,0,0,0-2.1-1.5H5.257a2.121,2.121,0,0,0-2.1,1.5L0,36.015V48.032a1.419,1.419,0,0,0,1.5,1.5H3a1.419,1.419,0,0,0,1.5-1.5v-1.5H22.532v1.5a1.419,1.419,0,0,0,1.5,1.5h1.5a1.419,1.419,0,0,0,1.5-1.5V36.015ZM5.257,42.023a2.253,2.253,0,0,1,0-4.506,2.253,2.253,0,1,1,0,4.506Zm16.523,0a2.253,2.253,0,1,1,2.253-2.253A2.31,2.31,0,0,1,21.781,42.023ZM3,34.513l2.253-6.76H21.781l2.253,6.76Z" transform="translate(0 -25.5)"/></g></svg>