<svg xmlns="http://www.w3.org/2000/svg" width="31.137" height="27.087" viewBox="0 0 31.137 27.087"><defs><style>.a{fill:#9f2f65;}</style></defs><g transform="translate(0 -19.219)"><path class="a" d="M122.867,26.03A3.078,3.078,0,0,0,125.8,23.9a12.373,12.373,0,0,1-5.864,0A3.078,3.078,0,0,0,122.867,26.03Z" transform="translate(-107.299 -4.192)"/><path class="a" d="M31.1,23.393a.713.713,0,0,0-.371-.408l-5.936-2.74a28.709,28.709,0,0,0-3.848-1.013.708.708,0,0,0-.136-.013.7.7,0,0,0-.681.548,4.669,4.669,0,0,1-9.114,0,.7.7,0,0,0-.681-.548.708.708,0,0,0-.136.013,28.819,28.819,0,0,0-3.85,1.013L.409,22.985a.7.7,0,0,0-.37.408.693.693,0,0,0,.037.55l2.577,5.086a.7.7,0,0,0,.828.356l2.862-.848V45.6a.705.705,0,0,0,.7.7H24.088a.7.7,0,0,0,.7-.7V28.537l2.864.848a.7.7,0,0,0,.828-.356l2.578-5.086A.706.706,0,0,0,31.1,23.393Z" transform="translate(0)"/></g></svg>