<svg xmlns="http://www.w3.org/2000/svg" width="21.828" height="27.917" viewBox="0 0 21.828 27.917"><defs><style>.a{fill:#19929d;}</style></defs><g transform="translate(-45.503)"><g transform="translate(45.503)"><path class="a" d="M67.309,12.845,65.425,3.186A3.94,3.94,0,0,0,61.521,0H51.382a3.94,3.94,0,0,0-3.9,3.186l-1.952,9.659a1.252,1.252,0,0,0,.24.993,1.153,1.153,0,0,0,.891.411h8.7V25.519H52.889a1.274,1.274,0,0,0-1.233,1.028,1.111,1.111,0,0,0,.274.959,1.173,1.173,0,0,0,.925.411h7.056a1.274,1.274,0,0,0,1.233-1.028,1.111,1.111,0,0,0-.274-.959,1.173,1.173,0,0,0-.925-.411H57.718V14.284h2.466v5.035a1.274,1.274,0,0,0,1.028,1.233,1.111,1.111,0,0,0,.959-.274,1.173,1.173,0,0,0,.411-.925v-5.07h3.631a1.2,1.2,0,0,0,.925-.445A1.577,1.577,0,0,0,67.309,12.845Z" transform="translate(-45.503)"/></g></g></svg>