<svg xmlns="http://www.w3.org/2000/svg" width="141.73" height="100.645" viewBox="0 0 141.73 100.645"><defs><style>.a,.i{fill:#272727;font-family:BahijTheSansArabic-SemiBold, Bahij TheSansArabic;font-weight:600;}.a{font-size:46px;}.b{fill:#42c370;}.c{fill:#f4be30;}.d{fill:#00ccdf;}.e{fill:#ff6425;}.f{fill:#268cc5;}.g{fill:#a1609f;}.h{fill:#e92885;}.i{font-size:31px;}</style></defs><g transform="translate(-85 -312)"><text class="a" transform="translate(226.73 361)"><tspan x="-64.351" y="0">هُنا</tspan></text><g transform="translate(85 327.396)"><path class="b" d="M-496.434-35.527l-11.645,11.643L-496-11.808l.008-.008,4.07,4.069-.008.008,12.083,12.083c4.553-4.43,8.792-9.069,10.7-12.583Z" transform="translate(526.881 55.009)"/><path class="c" d="M-496.461-35.539-470.79-9.868A30.793,30.793,0,0,0-469.074-20a30.937,30.937,0,0,0-15.888-27.039Z" transform="translate(530.977 50.95)"/><path class="d" d="M-520.61-33.791a30.922,30.922,0,0,0-1.369,9.122,30.838,30.838,0,0,0,1.461,9.378l9.2-9.2Z" transform="translate(521.979 55.621)"/><path class="e" d="M-496.05-11.974-507.943-.081c6.252,5.734,11.966,10.326,11.966,10.326s5.669-4.554,11.891-10.255Z" transform="translate(526.928 63.313)"/><path class="f" d="M-508.244-23.91l-10.9,10.9C-517.453-9.447-513-4.525-508.179.176l12.011-12.011Z" transform="translate(522.978 59.105)"/><path class="g" d="M-508.232-23.99l11.643-11.645-11.129-11.129a31.084,31.084,0,0,0-11.461,11.827Z" transform="translate(522.966 51.046)"/><path class="h" d="M-496.958-38.587l9.89-9.89a30.918,30.918,0,0,0-9.386-1.453,30.907,30.907,0,0,0-10.139,1.707Z" transform="translate(527.404 49.93)"/></g><text class="i" transform="translate(194.73 396.645)"><tspan x="-31.674" y="0">Here</tspan></text></g></svg>