<svg xmlns="http://www.w3.org/2000/svg" width="19.226" height="33.951" viewBox="0 0 19.226 33.951"><defs><style>.a{fill:#be4f22;}</style></defs><g transform="translate(-5.951)"><path class="a" d="M22.706,0H8.422A2.471,2.471,0,0,0,5.951,2.473V31.48a2.47,2.47,0,0,0,2.471,2.471H22.706a2.471,2.471,0,0,0,2.471-2.471V2.473A2.473,2.473,0,0,0,22.706,0ZM12.039,1.5h7.052c.178,0,.323.266.323.6s-.145.6-.323.6H12.039c-.179,0-.322-.267-.322-.6S11.86,1.5,12.039,1.5ZM15.565,31.51a1.577,1.577,0,1,1,1.575-1.579A1.58,1.58,0,0,1,15.565,31.51ZM23.326,26.1H7.8V4.173H23.326V26.1Z" transform="translate(0)"/></g></svg>