<svg xmlns="http://www.w3.org/2000/svg" width="39.272" height="23.522" viewBox="0 0 39.272 23.522"><defs><style>.a{fill:#915c1f;}</style></defs><g transform="translate(0 -12.833)"><path class="a" d="M31.909,21.627a7.313,7.313,0,0,0-2.423.418L27,17.529V15.7h2.735a.716.716,0,1,1,0,1.432,1.227,1.227,0,1,0,0,2.455,3.168,3.168,0,0,0,.59-6.281,1.191,1.191,0,0,0-.36-.06H25.773a1.227,1.227,0,0,0-1.227,1.227v2.148H15.43l-.6-1.329h1.939a1.227,1.227,0,0,0,0-2.455H9.1a1.227,1.227,0,1,0,0,2.455h3.041l.689,1.535a1.211,1.211,0,0,0-.406.429L9.786,22.046a7.36,7.36,0,1,0,4.83,8.172h5.021a1.278,1.278,0,0,0,.16-.017c.03,0,.061,0,.09-.01s.029-.01.043-.013.047-.015.072-.023a1.162,1.162,0,0,0,.126-.042.047.047,0,0,1,.012,0c.025-.012.045-.028.069-.041s.047-.024.069-.037.039-.023.059-.036a1.063,1.063,0,0,0,.093-.078c.025-.021.053-.039.077-.064,0,0,.007-.01.012-.014.029-.03.053-.063.078-.095s.048-.058.068-.089L20.7,29.6a.217.217,0,0,1,.014-.019l5.061-9.195,1.564,2.842a7.352,7.352,0,1,0,4.573-1.6ZM23.7,19.071l-3.948,7.172-3.217-7.172Zm-9.683.385,3.727,8.308H14.615a7.356,7.356,0,0,0-2.68-4.534Zm-1.9,8.308H9.44l1.287-2.339A4.908,4.908,0,0,1,12.111,27.763ZM7.364,33.9a4.909,4.909,0,1,1,1.214-9.66L6.289,28.4c-.01.018-.014.037-.024.055a.984.984,0,0,0-.05.12,1.071,1.071,0,0,0-.036.114,1.1,1.1,0,0,0-.023.114.873.873,0,0,0-.013.132c0,.019-.006.039-.006.058s0,.035,0,.052c0,.044.007.088.013.131s.012.075.021.113.021.075.035.113a1.112,1.112,0,0,0,.044.112c.017.036.036.069.056.1a.9.9,0,0,0,.063.1c.024.033.05.064.077.093s.053.058.082.084.059.05.09.074a1.027,1.027,0,0,0,.107.073c.014.01.028.021.043.03s.036.014.054.024a1.125,1.125,0,0,0,.12.05,1.15,1.15,0,0,0,.116.036,1.077,1.077,0,0,0,.109.023,1.177,1.177,0,0,0,.139.014c.018,0,.035,0,.054,0h4.747A4.915,4.915,0,0,1,7.364,33.9Zm24.545,0a4.9,4.9,0,0,1-3.364-8.475l2.289,4.157a1.227,1.227,0,0,0,2.15-1.184L30.7,24.239a4.907,4.907,0,1,1,1.214,9.66Z"/></g></svg>