<svg xmlns="http://www.w3.org/2000/svg" width="49" height="49" viewBox="0 0 49 49"><defs><style>.a{fill:#cfe2f7;}.b{fill:#2680eb;}</style></defs><g transform="translate(-0.026)"><rect class="a" width="49" height="49" rx="10" transform="translate(0.026)"/><g transform="translate(12.257 11.031)"><g transform="translate(0)"><path class="b" d="M-973.073,506.589q-5.016,0-10.032,0a1.648,1.648,0,0,1-1.777-1.45,1.6,1.6,0,0,1,.067-.686c.233-.728.456-1.463.755-2.164a8.213,8.213,0,0,1,6.674-5.162,1.49,1.49,0,0,1,1.207.259,5.148,5.148,0,0,0,2.4.908.852.852,0,0,1,.382.173,1.883,1.883,0,0,0,2.87-.614,2.043,2.043,0,0,1,1.484-.764,8.278,8.278,0,0,1,7.1,5.592c.2.538.376,1.089.559,1.635a1.644,1.644,0,0,1-1.628,2.271c-2.144.009-4.288,0-6.433,0Z" transform="translate(984.895 -478.915)"/><path class="b" d="M-888.508,294.006a1.923,1.923,0,0,0-3.2.64,3.955,3.955,0,0,1-1.571-.8,8.209,8.209,0,0,1-2.646-4.071,9.06,9.06,0,0,1-.1-5.787,5.47,5.47,0,0,1,5.252-3.735,5.388,5.388,0,0,1,5.2,3.746,9.563,9.563,0,0,1-1.378,8.4A5.912,5.912,0,0,1-888.508,294.006Z" transform="translate(902.606 -277.179)"/><path class="b" d="M-954.251,238.182a6.579,6.579,0,0,0-6.646,5.507.68.68,0,0,0,.051.307,2.959,2.959,0,0,1,.252.766c.023,1.344.012,2.689,0,4.034a.914.914,0,0,1-.722.887.91.91,0,0,1-1.02-.447.616.616,0,0,0-.37-.244,2.3,2.3,0,0,1-1.959-1.985,2.3,2.3,0,0,1,1.852-2.568,1.019,1.019,0,0,0,.822-.987,7.288,7.288,0,0,1,5.518-7.006,7.431,7.431,0,0,1,7.424,1.609,7.136,7.136,0,0,1,2.48,5.573,1.172,1.172,0,0,0,.771.8,2.067,2.067,0,0,1,1.805,1.555,2.322,2.322,0,0,1-.614,2.452,2.064,2.064,0,0,1-1.22.555,1.182,1.182,0,0,0-.771.883,9.122,9.122,0,0,1-.079,1.162,2.864,2.864,0,0,1-1.552,2.087,12.418,12.418,0,0,1-2.889.98c-.257.068-.514.138-.775.191a.983.983,0,0,0-.787.5.911.911,0,0,1-1.3.172.963.963,0,0,1-.237-1.306.951.951,0,0,1,1.292-.294.628.628,0,0,0,.582.085c.942-.252,1.9-.462,2.828-.748,1.566-.48,1.959-1.292,1.962-3.018,0-.084-.091-.165-.128-.252a2.1,2.1,0,0,1-.271-.69q-.044-1.966-.01-3.934a3.266,3.266,0,0,1,.251-.8.748.748,0,0,0,.048-.339,6.609,6.609,0,0,0-5.712-5.412C-953.683,238.205-954,238.2-954.251,238.182Z" transform="translate(966.094 -236.086)"/></g></g></g></svg>