<svg xmlns="http://www.w3.org/2000/svg" width="23.763" height="27.667" viewBox="0 0 23.763 27.667"><defs><style>.a{fill:#165fb4;}</style></defs><g transform="translate(-24.669)"><path class="a" d="M100.384,15.6c1.909,0,6.4-2.3,6.4-7.8,0-4.309-.582-7.8-6.4-7.8s-6.4,3.493-6.4,7.8C93.987,13.306,98.475,15.6,100.384,15.6ZM94.943,6.5a3.52,3.52,0,0,1,3.512-1.829s1.246,3.022,7.362,1.665c.025.483.032.975.032,1.466a6.956,6.956,0,0,1-2.185,5.282,5.587,5.587,0,0,1-3.281,1.588A5.587,5.587,0,0,1,97.1,13.084,6.956,6.956,0,0,1,94.918,7.8C94.918,7.367,94.925,6.93,94.943,6.5Z" transform="translate(-63.833)"/><path class="a" d="M48.427,196.77c-.327-2.031-1-4.646-2.347-5.576-.921-.635-4.134-2.351-5.506-3.084l-.024-.013a.448.448,0,0,0-.488.043,5.829,5.829,0,0,1-2.34,1.13.449.449,0,0,0-.322.279l-.849,2.238-.849-2.238a.449.449,0,0,0-.322-.279,5.829,5.829,0,0,1-2.34-1.13.448.448,0,0,0-.488-.043c-1.356.724-4.608,2.476-5.525,3.094-1.552,1.046-2.231,4.831-2.351,5.579a.449.449,0,0,0,.02.221c.056.157,1.48,3.841,11.856,3.841s11.8-3.684,11.856-3.841A.448.448,0,0,0,48.427,196.77Zm-4.781-1.239-2.031.633-2.031-.633v-1.093h4.062Z" transform="translate(0 -173.165)"/></g></svg>