<svg xmlns="http://www.w3.org/2000/svg" width="31" height="31" viewBox="0 0 31 31"><defs><style>.a{fill:#a2812c;}</style></defs><g transform="translate(-0.336 -0.001)"><path class="a" d="M169.279,187.813h-.706a.324.324,0,0,0-.323.323v.538H169.6v-.538A.324.324,0,0,0,169.279,187.813Zm0,0" transform="translate(-159.781 -178.714)"/><path class="a" d="M168.25,243.1H169.6v.862H168.25Zm0,0" transform="translate(-159.781 -231.325)"/><path class="a" d="M30.428,354.692h-.347v-10.8h.347a.908.908,0,1,0,0-1.816H16.744v1.816H1.547v10.8h-.3a.908.908,0,1,0,0,1.816H30.428a.908.908,0,1,0,0-1.816Zm-18.789,0H9.822V348.24a.324.324,0,0,0-.325-.322h-.7a.324.324,0,0,0-.326.322v6.452H6.653V348.24A2.142,2.142,0,0,1,8.795,346.1h.7a2.143,2.143,0,0,1,2.141,2.139Zm16.261,0H26.083v-1.306H20.634v1.306H18.817v-7.986a1.213,1.213,0,0,1,1.211-1.211h6.661a1.212,1.212,0,0,1,1.21,1.211Zm0,0" transform="translate(0 -325.508)"/><path class="a" d="M1.248,342.07a.908.908,0,0,0,0,1.817h.3V342.07Zm0,0" transform="translate(-0.004 -325.5)"/><path class="a" d="M419.387,450.129h5.449v1.354h-5.449Zm0,0" transform="translate(-398.753 -428.325)"/><path class="a" d="M419.387,513.1h5.449v1.45h-5.449Zm0,0" transform="translate(-398.753 -488.243)"/><path class="a" d="M1.73,6.433,8.922,1.881a.421.421,0,0,1,.447,0l7.192,4.552A.908.908,0,1,0,17.533,4.9L10.34.346a2.244,2.244,0,0,0-2.39,0L.758,4.9A.908.908,0,0,0,1.73,6.433Zm0,0" transform="translate(0 0)"/><path class="a" d="M33.158,75.035a.421.421,0,0,0-.447,0l-7.375,4.682v8.191h15.2v-8.26Zm2.269,9.785a.973.973,0,0,1-.973.973h-3.04a.973.973,0,0,1-.972-.973V80.76a2.142,2.142,0,0,1,2.14-2.14h.706a2.142,2.142,0,0,1,2.14,2.14Zm0,0" transform="translate(-23.789 -71.338)"/></g></svg>