<svg xmlns="http://www.w3.org/2000/svg" width="28.341" height="28.341" viewBox="0 0 28.341 28.341"><defs><style>.a{fill:#2680eb;}</style></defs><path class="a" d="M28.341,13.805A13.936,13.936,0,0,1,7.7,25.893L0,28.341l2.511-7.407a13.66,13.66,0,0,1-2-7.128,13.913,13.913,0,0,1,27.826,0ZM14.428,2.2a11.665,11.665,0,0,0-11.7,11.607,11.485,11.485,0,0,0,2.228,6.8L3.5,24.921l4.5-1.429a11.709,11.709,0,0,0,18.133-9.686A11.666,11.666,0,0,0,14.428,2.2Zm7.026,14.786c-.086-.141-.313-.226-.654-.395s-2.019-.988-2.33-1.1-.541-.169-.768.169-.881,1.1-1.08,1.326-.4.255-.739.085a9.335,9.335,0,0,1-2.742-1.679,10.2,10.2,0,0,1-1.9-2.343c-.2-.339-.021-.521.15-.69.154-.152.341-.4.512-.593a2.268,2.268,0,0,0,.341-.565.617.617,0,0,0-.028-.593c-.085-.169-.768-1.834-1.052-2.512s-.568-.564-.767-.564S9.972,7.5,9.745,7.5a1.259,1.259,0,0,0-.91.423,3.784,3.784,0,0,0-1.193,2.822,6.548,6.548,0,0,0,1.392,3.5c.17.225,2.359,3.754,5.826,5.109s3.467.9,4.093.846a3.45,3.45,0,0,0,2.3-1.608A2.821,2.821,0,0,0,21.454,16.985Z"/></svg>